<?xml version="1.0" standalone="no"?>
<!DOCTYPE svg PUBLIC "-//W3C//DTD SVG 20010904//EN"
 "http://www.w3.org/TR/2001/REC-SVG-20010904/DTD/svg10.dtd">
<svg version="1.0" xmlns="http://www.w3.org/2000/svg"
 width="256.000000pt" height="256.000000pt" viewBox="0 0 256.000000 256.000000"
 preserveAspectRatio="xMidYMid meet">
<metadata>
Created by potrace 1.14, written by Peter Selinger 2001-2017
</metadata>
<g transform="translate(0.000000,256.000000) scale(0.100000,-0.100000)"
fill="#000000" stroke="none">
<path d="M539 2448 c-192 -24 -364 -175 -414 -363 -13 -52 -15 -160 -16 -815
0 -734 1 -757 21 -814 62 -182 212 -312 391 -342 74 -12 1435 -11 1515 1 184
28 344 170 400 354 11 38 14 185 14 807 0 841 2 808 -65 929 -40 72 -100 132
-179 179 -119 71 -90 69 -891 70 -396 1 -745 -2 -776 -6z m631 -513 l0 -85
-40 0 -40 0 2 -242 3 -242 193 -1 c105 0 192 2 193 5 0 3 2 13 4 23 3 16 -11
17 -176 17 l-179 0 0 84 0 84 153 0 c83 0 163 1 177 1 l25 1 -1 128 c-1 70 -2
130 -3 135 0 4 -17 7 -36 7 -36 0 -37 2 -37 60 0 11 0 40 1 65 l1 45 172 -2
172 -3 1 -82 1 -83 -37 0 c-21 0 -39 -5 -41 -12 -2 -7 -4 -263 -4 -568 l1
-555 40 -5 40 -5 0 -83 1 -82 -173 0 -173 0 -1 35 c-4 131 -4 133 39 137 l37
3 0 132 c0 82 -4 133 -10 134 -5 0 -85 1 -177 1 l-168 0 0 84 0 84 177 2 c159
3 176 5 179 21 1 9 -1 17 -4 18 -21 3 -369 4 -379 1 -10 -3 -13 -61 -13 -243
l0 -239 40 0 40 0 0 -85 0 -85 -175 0 -175 0 0 85 0 85 40 0 40 0 0 135 0 135
-27 1 c-16 1 -57 1 -93 1 -121 -1 -110 4 -110 -50 l0 -48 38 1 37 0 3 -85 3
-85 -173 1 -173 1 -3 85 -3 85 39 -2 39 -2 -1 264 0 263 -38 0 -38 0 0 84 0
83 243 1 c133 0 245 1 250 1 4 1 7 62 7 136 l0 135 -40 0 -40 0 0 85 0 85 175
0 175 0 0 -85z m807 -386 c117 -39 171 -108 180 -234 8 -100 -9 -163 -58 -219
-67 -76 -170 -113 -314 -112 l-70 1 0 81 -1 81 76 6 c41 3 89 11 107 17 54 19
80 110 50 170 -21 42 -91 67 -187 69 l-45 1 -1 78 c-1 47 3 80 10 85 21 14
187 -2 253 -24z"/>
<path d="M670 1280 l0 -130 115 0 115 0 0 130 0 130 -115 0 -115 0 0 -130z"/>
</g>
</svg>
